<?xml version="1.0" encoding="utf-8"?>
<!-- Generator: Adobe Illustrator 23.0.0, SVG Export Plug-In . SVG Version: 6.00 Build 0)  -->
<svg version="1.1" id="Camada_1" xmlns="http://www.w3.org/2000/svg" xmlns:xlink="http://www.w3.org/1999/xlink" x="0px" y="0px"
	 viewBox="0 0 341 171" style="enable-background:new 0 0 341 171;" xml:space="preserve">
<style type="text/css">
	.st0{fill:#FFFFFF;}
	.st1{fill:#E0E0E0;}
</style>
<g>
	<path class="st0" d="M227.72,92.13c12.34-59.69-57.19-81.97-89.34-89.01c-17.46,3.91-36.8,12.94-47.16,33.18
		c0,0-11.5,17.86-6.56,33.69c0,0-40.57-4.95-37.6,32.65c0,0-44.53-9.89-46.5,27.71C-1.41,167.95,33.22,163,33.22,163h298.82
		C340.62,77.29,227.72,92.13,227.72,92.13z"/>
	<path class="st1" d="M227.72,92.13c0,0,6.13-4.12,15.12-10.16c3.95-14.58,17.35-81.24-68.13-81.24c0,0-17.02-1.93-36.33,2.39
		C170.54,10.16,240.06,32.44,227.72,92.13z"/>
	<path class="st1" d="M241.99,84.83c0,0,0.03-0.09,0.05-0.15l-14.32,7.45c0,0,112.89-14.84,104.31,70.87
		C332.04,163,348.86,52.18,241.99,84.83z"/>
	<path class="st1" d="M242.04,84.68c0.09-0.29,0.4-1.24,0.8-2.71c-8.99,6.04-15.12,10.16-15.12,10.16L242.04,84.68z"/>
</g>
</svg>
