<?xml version="1.0" encoding="utf-8"?>
<!-- Generator: Adobe Illustrator 23.0.0, SVG Export Plug-In . SVG Version: 6.00 Build 0)  -->
<svg version="1.1" id="Camada_1" xmlns="http://www.w3.org/2000/svg" xmlns:xlink="http://www.w3.org/1999/xlink" x="0px" y="0px"
	 viewBox="0 0 538 535" style="enable-background:new 0 0 538 535;" xml:space="preserve">
<style type="text/css">
	.st0{fill:#FFFFFF;}
	.st1{fill:#F3F3F3;}
	.st2{fill:#E0E0E0;}
	.st3{fill:#F1EBEB;}
</style>
<g>
	<g>
		<path class="st0" d="M258.98,4.08c-1.99,0.11-4.12,0.24-6.36,0.41c2.11-0.18,4.22-0.32,6.34-0.44
			C258.97,4.06,258.97,4.07,258.98,4.08z"/>
		<path class="st0" d="M538,267.5c0,134.93-101.27,246.2-231.95,261.97c-10.47,1.26-21.13,1.93-31.95,1.93
			c-145.75,0-263.9-118.15-263.9-263.9c0-118.3,77.85-218.41,185.11-251.91c0.01,0,0.02-0.01,0.03-0.01
			c18.27-5.71,37.4-9.48,57.14-11.08c0.05-0.01,0.1-0.01,0.14-0.01c2.24-0.17,4.37-0.3,6.36-0.41c7.87-0.44,13.5-0.48,15.12-0.48
			C419.85,3.6,538,121.75,538,267.5z"/>
		<path class="st1" d="M252.48,4.5c-19.74,1.6-38.87,5.37-57.14,11.08C212.77,8.67,235.75,5.74,252.48,4.5z"/>
	</g>
	<g>
		<path class="st2" d="M116.65,108c15.48-18.96,37.39-27,50.46-19.05c-0.6-0.64-1.23-1.25-1.91-1.81
			c-12.69-10.36-36.25-2.51-52.62,17.54s-19.34,44.7-6.65,55.06c0.69,0.56,1.41,1.06,2.16,1.51
			C97.67,150.04,101.16,126.96,116.65,108z"/>
		
			<ellipse transform="matrix(0.6324 -0.7746 0.7746 0.6324 -46.3406 152.5629)" class="st3" cx="137.58" cy="125.11" rx="46.67" ry="27.04"/>
	</g>
	<g>
		<path class="st2" d="M62.76,218.63c2.69-13.9,13.07-23.72,23.73-22.9c-0.58-0.18-1.18-0.34-1.79-0.46
			c-11.27-2.18-22.71,7.97-25.55,22.66c-2.84,14.7,3.99,28.38,15.26,30.56c0.61,0.12,1.22,0.19,1.83,0.24
			C66.04,245.51,60.07,232.53,62.76,218.63z"/>
		
			<ellipse transform="matrix(0.1899 -0.9818 0.9818 0.1899 -152.2859 259.9069)" class="st3" cx="81.35" cy="222.24" rx="26.99" ry="18.95"/>
	</g>
</g>
</svg>
